<?xml version="1.0" encoding="utf-8"?>

<!DOCTYPE svg PUBLIC "-//W3C//DTD SVG 1.1//EN" "http://www.w3.org/Graphics/SVG/1.1/DTD/svg11.dtd">
<!-- Uploaded to: SVG Repo, www.svgrepo.com, Transformed by: SVG Repo Mixer Tools -->
<svg version="1.1" id="Capa_1" xmlns="http://www.w3.org/2000/svg" xmlns:xlink="http://www.w3.org/1999/xlink" 
	 width="800px" height="800px" viewBox="0 0 32 32" enable-background="new 0 0 32 32" xml:space="preserve">
<g>
	<path fill="#2D2220" d="M27.5,6h-23C3.67,6,3,6.67,3,7.5v17C3,25.33,3.67,26,4.5,26h23c0.83,0,1.5-0.67,1.5-1.5v-17
		C29,6.67,28.33,6,27.5,6z M28,18.69c0,0,0,3.899,0,5.81c0,0.28-0.22,0.5-0.5,0.5h-23C4.22,25,4,24.78,4,24.5c0-0.4,0-0.75,0-0.75
		c0-0.5,0-1,0-1l10.31-6.81l3.04,2.23l5.24-4.23L28,17.69C28,17.69,28,18.09,28,18.69z M28,16.4l-4.84-3.28
		c-0.18-0.12-0.37-0.18-0.561-0.18c-0.189,0-0.39,0.06-0.56,0.18l-4.7,3.76l-2.52-1.78c-0.17-0.12-0.37-0.18-0.56-0.18
		c-0.19,0-0.38,0.06-0.56,0.18L4,21.54c0,0,0-13.1,0-14.04C4,7.22,4.22,7,4.5,7h23C27.78,7,28,7.22,28,7.5C28,8.06,28,16.4,28,16.4z
		"/>
	<path fill="#FFD561" d="M13,11c0,0.93-0.64,1.71-1.5,1.93c-0.86-0.22-1.5-1-1.5-1.93s0.64-1.71,1.5-1.93C12.36,9.29,13,10.07,13,11
		z"/>
	<path fill="#5FFFBA" d="M28,18.69c0,0,0,3.899,0,5.81c0,0.28-0.22,0.5-0.5,0.5h-23C4.22,25,4,24.78,4,24.5c0-0.4,0-0.75,0-0.75
		l10.31-6.81l3.04,2.23l5.24-4.23L28,18.69z"/>
</g>
<path fill="#2D2220" d="M11,9c1.103,0,2,0.897,2,2s-0.897,2-2,2s-2-0.897-2-2S9.897,9,11,9 M11,8c-1.657,0-3,1.343-3,3s1.343,3,3,3
	s3-1.343,3-3S12.657,8,11,8L11,8z"/>
</svg>